<mxfile host="app.diagrams.net" modified="2021-06-14T08:29:46.267Z" agent="5.0 (Macintosh; Intel Mac OS X 10_15_7) AppleWebKit/537.36 (KHTML, like Gecko) Chrome/91.0.4472.101 Safari/537.36" etag="NVP-gLmKHKrgsySexLrw" version="14.6.13" type="github">
  <diagram id="tZ-jy4j78BStJTzOApzN" name="Page-1">
    <mxGraphModel dx="547" dy="685" grid="1" gridSize="10" guides="1" tooltips="1" connect="1" arrows="1" fold="1" page="1" pageScale="1" pageWidth="700" pageHeight="1000" math="0" shadow="0">
      <root>
        <mxCell id="0" />
        <mxCell id="1" parent="0" />
        <mxCell id="phId5NGW30Dgw_bS_tOJ-29" value="" style="rounded=0;whiteSpace=wrap;html=1;fillColor=#f5f5f5;strokeColor=#666666;fontColor=#333333;" vertex="1" parent="1">
          <mxGeometry x="440" y="220" width="120" height="250" as="geometry" />
        </mxCell>
        <mxCell id="phId5NGW30Dgw_bS_tOJ-18" value="" style="rounded=0;whiteSpace=wrap;html=1;fillColor=#f5f5f5;strokeColor=#666666;fontColor=#333333;" vertex="1" parent="1">
          <mxGeometry x="90" y="220" width="190" height="250" as="geometry" />
        </mxCell>
        <mxCell id="phId5NGW30Dgw_bS_tOJ-20" style="edgeStyle=orthogonalEdgeStyle;curved=1;rounded=0;orthogonalLoop=1;jettySize=auto;html=1;exitX=0.5;exitY=1;exitDx=0;exitDy=0;entryX=0;entryY=0.75;entryDx=0;entryDy=0;dashed=1;" edge="1" parent="1" source="phId5NGW30Dgw_bS_tOJ-1" target="phId5NGW30Dgw_bS_tOJ-43">
          <mxGeometry relative="1" as="geometry">
            <Array as="points">
              <mxPoint x="200" y="190" />
              <mxPoint x="60" y="190" />
              <mxPoint x="60" y="580" />
            </Array>
          </mxGeometry>
        </mxCell>
        <mxCell id="phId5NGW30Dgw_bS_tOJ-31" value="添加或删除fd" style="edgeLabel;html=1;align=center;verticalAlign=middle;resizable=0;points=[];" vertex="1" connectable="0" parent="phId5NGW30Dgw_bS_tOJ-20">
          <mxGeometry x="-0.4573" y="8" relative="1" as="geometry">
            <mxPoint x="42" y="-54" as="offset" />
          </mxGeometry>
        </mxCell>
        <mxCell id="phId5NGW30Dgw_bS_tOJ-1" value="epoll_ctl" style="rounded=1;whiteSpace=wrap;html=1;dashed=1;" vertex="1" parent="1">
          <mxGeometry x="150" y="130" width="100" height="40" as="geometry" />
        </mxCell>
        <mxCell id="phId5NGW30Dgw_bS_tOJ-9" value="创建" style="rounded=0;orthogonalLoop=1;jettySize=auto;html=1;exitX=0.5;exitY=1;exitDx=0;exitDy=0;dashed=1;" edge="1" parent="1" source="phId5NGW30Dgw_bS_tOJ-2" target="phId5NGW30Dgw_bS_tOJ-4">
          <mxGeometry relative="1" as="geometry" />
        </mxCell>
        <mxCell id="phId5NGW30Dgw_bS_tOJ-2" value="epoll_create" style="rounded=1;whiteSpace=wrap;html=1;dashed=1;" vertex="1" parent="1">
          <mxGeometry x="300" y="130" width="100" height="40" as="geometry" />
        </mxCell>
        <mxCell id="phId5NGW30Dgw_bS_tOJ-3" value="epoll_wait" style="rounded=1;whiteSpace=wrap;html=1;dashed=1;" vertex="1" parent="1">
          <mxGeometry x="450" y="130" width="100" height="40" as="geometry" />
        </mxCell>
        <mxCell id="phId5NGW30Dgw_bS_tOJ-4" value="eventpoll" style="rounded=0;whiteSpace=wrap;html=1;fillColor=#d5e8d4;strokeColor=#82b366;" vertex="1" parent="1">
          <mxGeometry x="300" y="230" width="100" height="30" as="geometry" />
        </mxCell>
        <mxCell id="phId5NGW30Dgw_bS_tOJ-5" value="..." style="rounded=0;whiteSpace=wrap;html=1;" vertex="1" parent="1">
          <mxGeometry x="300" y="260" width="100" height="40" as="geometry" />
        </mxCell>
        <mxCell id="phId5NGW30Dgw_bS_tOJ-27" style="edgeStyle=orthogonalEdgeStyle;curved=1;rounded=0;orthogonalLoop=1;jettySize=auto;html=1;exitX=1;exitY=0.5;exitDx=0;exitDy=0;entryX=0;entryY=0;entryDx=0;entryDy=0;" edge="1" parent="1" source="phId5NGW30Dgw_bS_tOJ-6" target="phId5NGW30Dgw_bS_tOJ-22">
          <mxGeometry relative="1" as="geometry">
            <Array as="points">
              <mxPoint x="440" y="320" />
              <mxPoint x="440" y="263" />
            </Array>
          </mxGeometry>
        </mxCell>
        <mxCell id="phId5NGW30Dgw_bS_tOJ-28" value="rdllist" style="edgeLabel;html=1;align=center;verticalAlign=middle;resizable=0;points=[];" vertex="1" connectable="0" parent="phId5NGW30Dgw_bS_tOJ-27">
          <mxGeometry x="0.0243" y="-1" relative="1" as="geometry">
            <mxPoint as="offset" />
          </mxGeometry>
        </mxCell>
        <mxCell id="phId5NGW30Dgw_bS_tOJ-6" value="rdllist" style="rounded=0;whiteSpace=wrap;html=1;" vertex="1" parent="1">
          <mxGeometry x="300" y="300" width="100" height="40" as="geometry" />
        </mxCell>
        <mxCell id="phId5NGW30Dgw_bS_tOJ-17" value="&lt;span style=&quot;font-size: 11px&quot;&gt;rb_root&lt;/span&gt;" style="edgeStyle=orthogonalEdgeStyle;rounded=0;orthogonalLoop=1;jettySize=auto;html=1;exitX=0;exitY=0.5;exitDx=0;exitDy=0;entryX=1.06;entryY=0.38;entryDx=0;entryDy=0;entryPerimeter=0;curved=1;" edge="1" parent="1" source="phId5NGW30Dgw_bS_tOJ-7" target="phId5NGW30Dgw_bS_tOJ-8">
          <mxGeometry x="0.1765" y="10" relative="1" as="geometry">
            <Array as="points">
              <mxPoint x="280" y="360" />
              <mxPoint x="280" y="267" />
            </Array>
            <mxPoint as="offset" />
          </mxGeometry>
        </mxCell>
        <mxCell id="phId5NGW30Dgw_bS_tOJ-7" value="rbr" style="rounded=0;whiteSpace=wrap;html=1;" vertex="1" parent="1">
          <mxGeometry x="300" y="340" width="100" height="40" as="geometry" />
        </mxCell>
        <mxCell id="phId5NGW30Dgw_bS_tOJ-13" style="edgeStyle=none;rounded=0;orthogonalLoop=1;jettySize=auto;html=1;exitX=0;exitY=1;exitDx=0;exitDy=0;entryX=0.5;entryY=0;entryDx=0;entryDy=0;" edge="1" parent="1" source="phId5NGW30Dgw_bS_tOJ-8" target="phId5NGW30Dgw_bS_tOJ-10">
          <mxGeometry relative="1" as="geometry" />
        </mxCell>
        <mxCell id="phId5NGW30Dgw_bS_tOJ-16" value="rbn.rb_left" style="edgeLabel;html=1;align=center;verticalAlign=middle;resizable=0;points=[];" vertex="1" connectable="0" parent="phId5NGW30Dgw_bS_tOJ-13">
          <mxGeometry x="-0.2251" y="-1" relative="1" as="geometry">
            <mxPoint y="3" as="offset" />
          </mxGeometry>
        </mxCell>
        <mxCell id="phId5NGW30Dgw_bS_tOJ-14" value="rbn.rb_right" style="edgeStyle=none;rounded=0;orthogonalLoop=1;jettySize=auto;html=1;exitX=1;exitY=1;exitDx=0;exitDy=0;entryX=0.5;entryY=0;entryDx=0;entryDy=0;" edge="1" parent="1" source="phId5NGW30Dgw_bS_tOJ-8" target="phId5NGW30Dgw_bS_tOJ-11">
          <mxGeometry x="0.2106" y="10" relative="1" as="geometry">
            <mxPoint as="offset" />
          </mxGeometry>
        </mxCell>
        <mxCell id="phId5NGW30Dgw_bS_tOJ-8" value="rb_node" style="ellipse;whiteSpace=wrap;html=1;aspect=fixed;fillColor=#fff2cc;strokeColor=#d6b656;" vertex="1" parent="1">
          <mxGeometry x="170" y="248" width="50" height="50" as="geometry" />
        </mxCell>
        <mxCell id="phId5NGW30Dgw_bS_tOJ-15" style="edgeStyle=none;rounded=0;orthogonalLoop=1;jettySize=auto;html=1;exitX=0;exitY=1;exitDx=0;exitDy=0;entryX=0.5;entryY=0;entryDx=0;entryDy=0;" edge="1" parent="1" source="phId5NGW30Dgw_bS_tOJ-10" target="phId5NGW30Dgw_bS_tOJ-12">
          <mxGeometry relative="1" as="geometry" />
        </mxCell>
        <mxCell id="phId5NGW30Dgw_bS_tOJ-10" value="rb_node" style="ellipse;whiteSpace=wrap;html=1;aspect=fixed;fillColor=#fff2cc;strokeColor=#d6b656;" vertex="1" parent="1">
          <mxGeometry x="130" y="328" width="50" height="50" as="geometry" />
        </mxCell>
        <mxCell id="phId5NGW30Dgw_bS_tOJ-11" value="rb_node" style="ellipse;whiteSpace=wrap;html=1;aspect=fixed;fillColor=#fff2cc;strokeColor=#d6b656;" vertex="1" parent="1">
          <mxGeometry x="210" y="328" width="50" height="50" as="geometry" />
        </mxCell>
        <mxCell id="phId5NGW30Dgw_bS_tOJ-12" value="rb_node" style="ellipse;whiteSpace=wrap;html=1;aspect=fixed;fillColor=#fff2cc;strokeColor=#d6b656;" vertex="1" parent="1">
          <mxGeometry x="100" y="393" width="50" height="50" as="geometry" />
        </mxCell>
        <mxCell id="phId5NGW30Dgw_bS_tOJ-19" value="monitored fd structs" style="text;html=1;strokeColor=none;fillColor=none;align=center;verticalAlign=middle;whiteSpace=wrap;rounded=0;" vertex="1" parent="1">
          <mxGeometry x="90" y="220" width="110" height="30" as="geometry" />
        </mxCell>
        <mxCell id="phId5NGW30Dgw_bS_tOJ-25" style="edgeStyle=orthogonalEdgeStyle;curved=1;rounded=0;orthogonalLoop=1;jettySize=auto;html=1;exitX=0.5;exitY=1;exitDx=0;exitDy=0;entryX=0.5;entryY=0;entryDx=0;entryDy=0;startArrow=classic;startFill=1;" edge="1" parent="1" source="phId5NGW30Dgw_bS_tOJ-22" target="phId5NGW30Dgw_bS_tOJ-23">
          <mxGeometry relative="1" as="geometry" />
        </mxCell>
        <mxCell id="phId5NGW30Dgw_bS_tOJ-22" value="list_head" style="ellipse;whiteSpace=wrap;html=1;aspect=fixed;fillColor=#fff2cc;strokeColor=#d6b656;fontSize=11;" vertex="1" parent="1">
          <mxGeometry x="475" y="256" width="50" height="50" as="geometry" />
        </mxCell>
        <mxCell id="phId5NGW30Dgw_bS_tOJ-26" style="edgeStyle=orthogonalEdgeStyle;curved=1;rounded=0;orthogonalLoop=1;jettySize=auto;html=1;exitX=0.5;exitY=1;exitDx=0;exitDy=0;entryX=0.5;entryY=0;entryDx=0;entryDy=0;startArrow=classic;startFill=1;" edge="1" parent="1" source="phId5NGW30Dgw_bS_tOJ-23" target="phId5NGW30Dgw_bS_tOJ-24">
          <mxGeometry relative="1" as="geometry" />
        </mxCell>
        <mxCell id="phId5NGW30Dgw_bS_tOJ-23" value="hlist_node" style="ellipse;whiteSpace=wrap;html=1;aspect=fixed;fillColor=#fff2cc;strokeColor=#d6b656;fontSize=11;" vertex="1" parent="1">
          <mxGeometry x="475" y="331" width="50" height="50" as="geometry" />
        </mxCell>
        <mxCell id="phId5NGW30Dgw_bS_tOJ-24" value="hlist_node" style="ellipse;whiteSpace=wrap;html=1;aspect=fixed;fillColor=#fff2cc;strokeColor=#d6b656;" vertex="1" parent="1">
          <mxGeometry x="475" y="406" width="50" height="50" as="geometry" />
        </mxCell>
        <mxCell id="phId5NGW30Dgw_bS_tOJ-32" style="edgeStyle=orthogonalEdgeStyle;curved=1;rounded=0;orthogonalLoop=1;jettySize=auto;html=1;exitX=0.5;exitY=0;exitDx=0;exitDy=0;entryX=0.5;entryY=1;entryDx=0;entryDy=0;dashed=1;" edge="1" parent="1" source="phId5NGW30Dgw_bS_tOJ-30" target="phId5NGW30Dgw_bS_tOJ-3">
          <mxGeometry relative="1" as="geometry" />
        </mxCell>
        <mxCell id="phId5NGW30Dgw_bS_tOJ-33" value="获取就绪fd&lt;br&gt;&lt;span style=&quot;font-size: 11px&quot;&gt;epoll_event&lt;/span&gt;" style="edgeLabel;html=1;align=center;verticalAlign=middle;resizable=0;points=[];" vertex="1" connectable="0" parent="phId5NGW30Dgw_bS_tOJ-32">
          <mxGeometry x="-0.15" y="-2" relative="1" as="geometry">
            <mxPoint x="-2" y="1" as="offset" />
          </mxGeometry>
        </mxCell>
        <mxCell id="phId5NGW30Dgw_bS_tOJ-30" value="List of &lt;br&gt;ready file descriptors" style="text;html=1;strokeColor=none;fillColor=none;align=center;verticalAlign=middle;whiteSpace=wrap;rounded=0;" vertex="1" parent="1">
          <mxGeometry x="440" y="220" width="120" height="30" as="geometry" />
        </mxCell>
        <mxCell id="phId5NGW30Dgw_bS_tOJ-37" style="edgeStyle=orthogonalEdgeStyle;curved=1;rounded=0;orthogonalLoop=1;jettySize=auto;html=1;exitX=1;exitY=0.5;exitDx=0;exitDy=0;entryX=0.5;entryY=1;entryDx=0;entryDy=0;dashed=1;startArrow=none;startFill=0;" edge="1" parent="1" source="phId5NGW30Dgw_bS_tOJ-34" target="phId5NGW30Dgw_bS_tOJ-24">
          <mxGeometry relative="1" as="geometry">
            <Array as="points">
              <mxPoint x="500" y="570" />
            </Array>
          </mxGeometry>
        </mxCell>
        <mxCell id="phId5NGW30Dgw_bS_tOJ-38" value="ready" style="edgeLabel;html=1;align=center;verticalAlign=middle;resizable=0;points=[];" vertex="1" connectable="0" parent="phId5NGW30Dgw_bS_tOJ-37">
          <mxGeometry x="-0.809" relative="1" as="geometry">
            <mxPoint x="12" y="-40" as="offset" />
          </mxGeometry>
        </mxCell>
        <mxCell id="phId5NGW30Dgw_bS_tOJ-34" value="fd" style="rhombus;whiteSpace=wrap;html=1;strokeColor=#d6b656;fillColor=#fff2cc;" vertex="1" parent="1">
          <mxGeometry x="433" y="549" width="42" height="42" as="geometry" />
        </mxCell>
        <mxCell id="phId5NGW30Dgw_bS_tOJ-49" style="edgeStyle=none;rounded=0;orthogonalLoop=1;jettySize=auto;html=1;exitX=0.5;exitY=1;exitDx=0;exitDy=0;entryX=0.5;entryY=0;entryDx=0;entryDy=0;dashed=1;fontSize=11;startArrow=none;startFill=0;" edge="1" parent="1" source="phId5NGW30Dgw_bS_tOJ-36" target="phId5NGW30Dgw_bS_tOJ-40">
          <mxGeometry relative="1" as="geometry" />
        </mxCell>
        <mxCell id="phId5NGW30Dgw_bS_tOJ-36" value="ovflist" style="rounded=0;whiteSpace=wrap;html=1;" vertex="1" parent="1">
          <mxGeometry x="300" y="376" width="100" height="40" as="geometry" />
        </mxCell>
        <mxCell id="phId5NGW30Dgw_bS_tOJ-40" value="&lt;span style=&quot;font-size: 11px&quot;&gt;epitem&lt;/span&gt;" style="rounded=0;whiteSpace=wrap;html=1;fontSize=11;fillColor=#d5e8d4;strokeColor=#82b366;" vertex="1" parent="1">
          <mxGeometry x="300" y="440" width="100" height="30" as="geometry" />
        </mxCell>
        <mxCell id="phId5NGW30Dgw_bS_tOJ-41" value="&lt;span style=&quot;font-size: 11px&quot;&gt;rb_node&amp;nbsp;rbn&lt;/span&gt;" style="rounded=0;whiteSpace=wrap;html=1;fontSize=11;" vertex="1" parent="1">
          <mxGeometry x="300" y="510" width="100" height="40" as="geometry" />
        </mxCell>
        <mxCell id="phId5NGW30Dgw_bS_tOJ-47" style="edgeStyle=none;rounded=0;orthogonalLoop=1;jettySize=auto;html=1;exitX=0;exitY=0.5;exitDx=0;exitDy=0;entryX=1;entryY=1;entryDx=0;entryDy=0;dashed=1;fontSize=11;startArrow=none;startFill=0;" edge="1" parent="1" source="phId5NGW30Dgw_bS_tOJ-41" target="phId5NGW30Dgw_bS_tOJ-12">
          <mxGeometry relative="1" as="geometry" />
        </mxCell>
        <mxCell id="phId5NGW30Dgw_bS_tOJ-48" style="edgeStyle=none;rounded=0;orthogonalLoop=1;jettySize=auto;html=1;exitX=1;exitY=0.5;exitDx=0;exitDy=0;entryX=0;entryY=0.5;entryDx=0;entryDy=0;dashed=1;fontSize=11;startArrow=none;startFill=0;" edge="1" parent="1" source="phId5NGW30Dgw_bS_tOJ-42" target="phId5NGW30Dgw_bS_tOJ-24">
          <mxGeometry relative="1" as="geometry" />
        </mxCell>
        <mxCell id="phId5NGW30Dgw_bS_tOJ-42" value="&lt;span style=&quot;font-size: 11px&quot;&gt;hlist_node&amp;nbsp;fllink&lt;/span&gt;" style="rounded=0;whiteSpace=wrap;html=1;fontSize=11;" vertex="1" parent="1">
          <mxGeometry x="300" y="470" width="100" height="40" as="geometry" />
        </mxCell>
        <mxCell id="phId5NGW30Dgw_bS_tOJ-45" style="rounded=0;orthogonalLoop=1;jettySize=auto;html=1;exitX=1;exitY=0.5;exitDx=0;exitDy=0;entryX=0;entryY=0.5;entryDx=0;entryDy=0;dashed=1;fontSize=11;startArrow=none;startFill=0;" edge="1" parent="1" source="phId5NGW30Dgw_bS_tOJ-43" target="phId5NGW30Dgw_bS_tOJ-34">
          <mxGeometry relative="1" as="geometry" />
        </mxCell>
        <mxCell id="phId5NGW30Dgw_bS_tOJ-43" value="&lt;span style=&quot;font-size: 11px&quot;&gt;epoll_filefd&amp;nbsp;&lt;/span&gt;&lt;span style=&quot;font-size: 11px&quot;&gt;ffd&lt;/span&gt;" style="rounded=0;whiteSpace=wrap;html=1;fontSize=11;" vertex="1" parent="1">
          <mxGeometry x="300" y="550" width="100" height="40" as="geometry" />
        </mxCell>
        <mxCell id="phId5NGW30Dgw_bS_tOJ-44" value="..." style="rounded=0;whiteSpace=wrap;html=1;fontSize=11;" vertex="1" parent="1">
          <mxGeometry x="300" y="590" width="100" height="40" as="geometry" />
        </mxCell>
      </root>
    </mxGraphModel>
  </diagram>
</mxfile>
